<svg width="14" height="13" viewBox="0 0 14 13" fill="none" xmlns="http://www.w3.org/2000/svg">
<path d="M6.58909 0.304249C6.7552 0.156592 6.91208 0.156592 7.05974 0.304249L12.9014 6.17358C13.0675 6.32124 13.0675 6.4689 12.9014 6.61655L7.05974 12.4859C6.91208 12.6335 6.7552 12.6335 6.58909 12.4859L6.39529 12.2644C6.24763 12.1167 6.24763 11.9599 6.39529 11.7937L11.351 6.86572H0.941235C0.719751 6.86572 0.609009 6.75498 0.609009 6.5335V6.25664C0.609009 6.03516 0.719751 5.92441 0.941235 5.92441H11.351L6.39529 0.996387C6.24763 0.830274 6.24763 0.673389 6.39529 0.525733L6.58909 0.304249Z" fill="#FF8713"/>
</svg>
