<svg width="28" height="28" viewBox="0 0 28 28" fill="none" xmlns="http://www.w3.org/2000/svg">
<path d="M13.6844 0.797485C21.1766 0.797485 27.2469 6.8678 27.2469 14.36C27.2469 21.8522 21.1766 27.9225 13.6844 27.9225C6.19219 27.9225 0.121876 21.8522 0.121876 14.36C0.121876 6.8678 6.19219 0.797485 13.6844 0.797485ZM13.6844 25.2975C19.7 25.2975 24.6219 20.4303 24.6219 14.36C24.6219 8.34436 19.7 3.42249 13.6844 3.42249C7.61406 3.42249 2.74688 8.34436 2.74688 14.36C2.74688 20.4303 7.61406 25.2975 13.6844 25.2975ZM17.0203 19.61L12.3719 16.2194C12.2078 16.11 12.1531 15.8912 12.1531 15.7272V6.70374C12.1531 6.37561 12.4266 6.04749 12.8094 6.04749H14.5594C14.8875 6.04749 15.2156 6.37561 15.2156 6.70374V14.4694L18.825 17.149C19.1531 17.3678 19.2078 17.7506 18.9891 18.0787L17.95 19.4459C17.7313 19.774 17.3484 19.8287 17.0203 19.61Z" fill="black"/>
</svg>
