<svg width="17" height="13" viewBox="0 0 17 13" fill="none" xmlns="http://www.w3.org/2000/svg">
<path d="M15.8823 11.1992C16.0646 11.3997 16.1011 11.6276 15.9917 11.8828C15.8823 12.138 15.6909 12.2656 15.4175 12.2656C14.2326 12.2656 13.0933 11.9102 11.9995 11.1992C11.4709 11.3268 10.924 11.3906 10.3589 11.3906C9.19222 11.3906 8.13493 11.1445 7.18701 10.6523C6.2391 10.1602 5.54639 9.51302 5.10889 8.71094C4.85368 8.67448 4.59847 8.62891 4.34326 8.57422C3.26774 9.28516 2.12842 9.64062 0.925293 9.64062C0.651855 9.64062 0.460449 9.51302 0.351074 9.25781C0.241699 9.0026 0.278158 8.77474 0.460449 8.57422C0.843262 8.20964 1.18962 7.70833 1.49951 7.07031C0.697428 6.28646 0.296387 5.39323 0.296387 4.39062C0.296387 3.1875 0.852376 2.15755 1.96436 1.30078C3.07633 0.44401 4.41618 0.015625 5.98389 0.015625C7.15055 0.015625 8.20785 0.261719 9.15576 0.753906C10.1037 1.24609 10.7964 1.89323 11.2339 2.69531C12.6011 2.85938 13.7404 3.35156 14.6519 4.17188C15.5815 4.97396 16.0464 5.92188 16.0464 7.01562C16.0464 8.01823 15.6453 8.91146 14.8433 9.69531C14.9709 9.95052 15.1167 10.2057 15.2808 10.4609C15.4631 10.6979 15.5998 10.8802 15.6909 11.0078C15.8003 11.1172 15.8641 11.181 15.8823 11.1992ZM4.53467 7.72656C5.00863 7.83594 5.4917 7.89062 5.98389 7.89062C7.31462 7.89062 8.44482 7.55339 9.37451 6.87891C10.3224 6.1862 10.7964 5.35677 10.7964 4.39062C10.7964 3.42448 10.3224 2.60417 9.37451 1.92969C8.44482 1.23698 7.31462 0.890625 5.98389 0.890625C4.65316 0.890625 3.51383 1.23698 2.56592 1.92969C1.63623 2.60417 1.17139 3.42448 1.17139 4.39062C1.17139 5.15625 1.48128 5.83984 2.10107 6.44141L2.56592 6.90625L2.29248 7.45312C2.07373 7.89062 1.80029 8.31901 1.47217 8.73828C2.31071 8.64714 3.11279 8.34635 3.87842 7.83594L4.1792 7.64453L4.53467 7.72656ZM12.4644 10.4609C13.23 10.9714 14.0321 11.2721 14.8706 11.3633C14.5425 10.944 14.269 10.5156 14.0503 10.0781L13.7769 9.53125L14.2417 9.06641C14.8615 8.46484 15.1714 7.78125 15.1714 7.01562C15.1714 6.21354 14.8341 5.5026 14.1597 4.88281C13.4852 4.24479 12.6284 3.82552 11.5894 3.625C11.644 3.89844 11.6714 4.15365 11.6714 4.39062C11.6714 5.57552 11.1336 6.58724 10.0581 7.42578C9.00081 8.26432 7.71566 8.71094 6.20264 8.76562C6.62191 9.29427 7.19613 9.72266 7.92529 10.0508C8.67269 10.3607 9.48389 10.5156 10.3589 10.5156C10.8511 10.5156 11.3341 10.4609 11.8081 10.3516L12.1636 10.2695L12.4644 10.4609Z" fill="#FF8713"/>
</svg>
