<svg width="16" height="16" viewBox="0 0 16 16" fill="none" xmlns="http://www.w3.org/2000/svg">
<path d="M14.0398 0.238037C14.903 0.238037 15.6335 0.968506 15.6335 1.83179V13.5193C15.6335 14.4158 14.903 15.113 14.0398 15.113H9.45772V10.0662H11.3835L11.7487 7.67554H9.45772V6.14819C9.45772 5.48413 9.78975 4.85327 10.8191 4.85327H11.8483V2.82788C11.8483 2.82788 10.9187 2.66187 9.98897 2.66187C8.1296 2.66187 6.90108 3.82397 6.90108 5.88257V7.67554H4.80929V10.0662H6.90108V15.113H2.35225C1.45577 15.113 0.758505 14.4158 0.758505 13.5193V1.83179C0.758505 0.968506 1.45577 0.238037 2.35225 0.238037H14.0398Z" fill="white"/>
</svg>
