<svg width="28" height="29" viewBox="0 0 28 29" fill="none" xmlns="http://www.w3.org/2000/svg">
<path d="M27.0082 25.2414L23.6242 21.8573L23.3161 22.1654L22.5777 21.427C23.0505 20.6301 23.3054 19.727 23.3054 18.7761C23.3054 17.8889 23.0823 17.0335 22.6679 16.2738C22.992 15.2061 23.1673 14.101 23.1673 12.9748C23.1673 6.73262 18.0885 1.65918 11.8517 1.65918C5.60952 1.65918 0.530762 6.73793 0.530762 12.9748C0.530762 19.2117 5.60952 24.2904 11.8464 24.2904C13.0842 24.2904 14.3061 24.0938 15.4536 23.7061L15.9795 23.552C16.633 23.8389 17.3502 23.9983 18.0833 23.9983C19.0289 23.9983 19.9374 23.7433 20.7342 23.2704L21.4726 24.0089L21.1644 24.317L24.5486 27.701C24.8885 28.0411 25.3348 28.211 25.7811 28.211C26.2273 28.211 26.6736 28.0411 27.0136 27.701C27.6883 27.021 27.6883 25.9161 27.0082 25.2414ZM21.7754 15.0838C20.7873 14.0957 19.4751 13.5539 18.0833 13.5539C17.8813 13.5539 17.6848 13.5698 17.4882 13.591C17.4882 13.5326 17.4936 13.4741 17.4936 13.4158H22.2801C22.2536 14.0692 22.1686 14.7173 22.0198 15.3548C21.9401 15.2592 21.8605 15.1689 21.7754 15.0838ZM6.90045 8.78324C7.29358 8.78324 7.61233 9.10199 7.61233 9.49512C7.61233 9.88825 7.29358 10.207 6.90045 10.207C6.50733 10.207 6.18857 9.88825 6.18857 9.49512C6.18857 9.10199 6.50733 8.78324 6.90045 8.78324ZM7.15013 11.0516C7.90451 10.9295 8.47821 10.2813 8.47821 9.49512C8.47821 8.8895 8.12767 8.36355 7.62827 8.10324C7.66545 7.94918 7.70795 7.79512 7.75045 7.64106C8.90858 8.09262 10.1464 8.34762 11.4161 8.39543V12.5392H7.07576C7.08107 12.0398 7.10764 11.5404 7.15013 11.0516ZM12.282 8.39543C13.5464 8.34762 14.7789 8.09262 15.937 7.64106C16.3408 9.09668 16.5905 10.7701 16.6277 12.5392H12.282V8.39543ZM12.282 7.51355V2.57293C13.6579 2.8598 14.8851 4.47481 15.682 6.80699C14.6089 7.23199 13.4614 7.46575 12.282 7.51355ZM14.4123 2.84917C15.9848 3.24761 17.4192 4.0073 18.6198 5.03261C17.9664 5.59043 17.2546 6.06855 16.4948 6.44575C15.9636 4.92106 15.2517 3.68324 14.4123 2.84917ZM11.4108 2.57824V7.51355C10.2313 7.46575 9.08391 7.23199 8.00543 6.80699C8.8236 4.42168 10.0667 2.8598 11.4108 2.57824ZM11.4108 13.4104V17.5542C10.1464 17.602 8.91394 17.857 7.75576 18.3086C7.35201 16.8529 7.10233 15.1795 7.06514 13.4104H11.4108ZM11.4108 18.4361V23.3767C10.0348 23.0898 8.8077 21.4748 8.0108 19.1427C9.08918 18.7176 10.2367 18.4892 11.4108 18.4361ZM9.28576 23.1057C7.71326 22.7073 6.27889 21.9476 5.07827 20.9223C5.7317 20.3645 6.44358 19.8864 7.20326 19.5092C7.7292 21.0338 8.44642 22.2717 9.28576 23.1057ZM12.282 23.3713V18.4307C12.4786 18.4413 12.6751 18.452 12.8717 18.4733C12.8664 18.5742 12.8558 18.6751 12.8558 18.7761C12.8558 20.0299 13.2967 21.2092 14.0989 22.1548C13.6845 22.6489 13.0577 23.212 12.282 23.3713ZM12.9939 17.6126C12.7601 17.5914 12.5211 17.57 12.282 17.5648V13.4158H16.6223C16.6223 13.5326 16.6171 13.6496 16.6116 13.7664C15.7829 14.0108 15.0179 14.4569 14.3911 15.0838C13.6845 15.7904 13.2117 16.6617 12.9939 17.6126ZM22.2854 12.5392H17.5043C17.467 10.6161 17.2067 8.83106 16.7657 7.27981C17.6636 6.84419 18.5082 6.29168 19.2733 5.62761C21.0423 7.42324 22.1739 9.85103 22.2854 12.5392ZM7.20857 6.44575C6.44889 6.06855 5.73701 5.59043 5.07827 5.0273C6.27889 4.00199 7.71326 3.2423 9.29111 2.84386C8.46231 3.67262 7.74513 4.89981 7.20857 6.44575ZM4.43014 5.63292C5.20044 6.30231 6.04514 6.85481 6.94826 7.29043C6.88982 7.49762 6.83139 7.71012 6.77826 7.92793C5.96545 7.99168 5.32264 8.66637 5.32264 9.49512C5.32264 10.1486 5.72107 10.7117 6.28951 10.9507C6.2417 11.4767 6.21514 12.0079 6.20451 12.5392H1.41264C1.5242 9.85103 2.65576 7.42324 4.43014 5.63292ZM1.41264 13.4104H6.19388C6.23107 15.3335 6.49138 17.1186 6.93233 18.6699C6.03451 19.1054 5.18982 19.6579 4.42483 20.322C2.65576 18.5317 1.5242 16.0986 1.41264 13.4104ZM14.4017 23.111C14.5079 23.0048 14.6142 22.8879 14.7205 22.771C14.7948 22.8348 14.8746 22.8933 14.9542 22.9516C14.7682 23.0048 14.5876 23.0633 14.4017 23.111ZM15.0073 21.852C14.1839 21.0285 13.7323 19.9342 13.7323 18.7761C13.7323 17.6126 14.1839 16.5182 15.0073 15.7001C15.8308 14.8766 16.9251 14.4252 18.0833 14.4252C19.2467 14.4252 20.3411 14.8766 21.1592 15.7001C21.9826 16.5235 22.4342 17.6179 22.4342 18.7761C22.4342 19.6261 22.1898 20.4442 21.7329 21.14L21.6639 21.241C21.5843 21.358 21.5045 21.4642 21.4195 21.5652C21.3346 21.6661 21.2495 21.7616 21.1592 21.852C21.0689 21.9423 20.9679 22.0327 20.8723 22.1123C20.7714 22.1973 20.6651 22.2769 20.5483 22.3567L20.4474 22.4257C19.7513 22.8773 18.9385 23.1217 18.0833 23.1217C16.9198 23.127 15.8254 22.6754 15.0073 21.852ZM21.4567 22.7658C21.5682 22.6701 21.6745 22.5745 21.7808 22.4735C21.8816 22.3726 21.9826 22.2664 22.0729 22.1548L22.6998 22.7817L22.0836 23.3979L21.4567 22.7658ZM26.392 27.0848C26.052 27.4248 25.4995 27.4248 25.1595 27.0848L22.3917 24.317L23.6242 23.0845L26.392 25.8523C26.732 26.1923 26.732 26.7448 26.392 27.0848Z" fill="black"/>
<path d="M20.7003 16.2447C19.3031 14.8475 17.0347 14.8475 15.6375 16.2447L16.2537 16.8609C17.3109 15.8037 19.0268 15.8037 20.084 16.8609L20.7003 16.2447Z" fill="#FF8713"/>
</svg>
