<svg width="16" height="16" viewBox="0 0 16 16" fill="none" xmlns="http://www.w3.org/2000/svg">
<path d="M8.066 3.85718C10.1578 3.85718 11.8844 5.58374 11.8844 7.67554C11.8844 9.80054 10.1578 11.4939 8.066 11.4939C5.941 11.4939 4.24764 9.80054 4.24764 7.67554C4.24764 5.58374 5.941 3.85718 8.066 3.85718ZM8.066 10.1658C9.42733 10.1658 10.523 9.07007 10.523 7.67554C10.523 6.31421 9.42733 5.21851 8.066 5.21851C6.67147 5.21851 5.57577 6.31421 5.57577 7.67554C5.57577 9.07007 6.70467 10.1658 8.066 10.1658ZM12.9137 3.72437C12.9137 4.22241 12.5152 4.62085 12.0172 4.62085C11.5191 4.62085 11.1207 4.22241 11.1207 3.72437C11.1207 3.22632 11.5191 2.82788 12.0172 2.82788C12.5152 2.82788 12.9137 3.22632 12.9137 3.72437ZM15.4371 4.62085C15.5035 5.84937 15.5035 9.53491 15.4371 10.7634C15.3707 11.9587 15.1051 12.988 14.2418 13.8845C13.3785 14.7478 12.316 15.0134 11.1207 15.0798C9.89217 15.1462 6.20662 15.1462 4.97811 15.0798C3.7828 15.0134 2.7535 14.7478 1.85702 13.8845C0.993734 12.988 0.728109 11.9587 0.661703 10.7634C0.595297 9.53491 0.595297 5.84937 0.661703 4.62085C0.728109 3.42554 0.993734 2.36304 1.85702 1.49976C2.7535 0.636475 3.7828 0.37085 4.97811 0.304443C6.20662 0.238037 9.89217 0.238037 11.1207 0.304443C12.316 0.37085 13.3785 0.636475 14.2418 1.49976C15.1051 2.36304 15.3707 3.42554 15.4371 4.62085ZM13.8433 12.0583C14.2418 11.0955 14.1422 8.77124 14.1422 7.67554C14.1422 6.61304 14.2418 4.28882 13.8433 3.29272C13.5777 2.66187 13.0797 2.13062 12.4488 1.89819C11.4527 1.49976 9.1285 1.59937 8.066 1.59937C6.9703 1.59937 4.64608 1.49976 3.68319 1.89819C3.01912 2.16382 2.52108 2.66187 2.25545 3.29272C1.85702 4.28882 1.95662 6.61304 1.95662 7.67554C1.95662 8.77124 1.85702 11.0955 2.25545 12.0583C2.52108 12.7224 3.01912 13.2205 3.68319 13.4861C4.64608 13.8845 6.9703 13.7849 8.066 13.7849C9.1285 13.7849 11.4527 13.8845 12.4488 13.4861C13.0797 13.2205 13.6109 12.7224 13.8433 12.0583Z" fill="white"/>
</svg>
