<svg width="17" height="12" viewBox="0 0 17 12" fill="none" xmlns="http://www.w3.org/2000/svg">
<path d="M15.4507 0C15.8674 0 16.2215 0.145833 16.5132 0.4375C16.8049 0.729167 16.9507 1.08333 16.9507 1.5V10.5C16.9507 10.9167 16.8049 11.2708 16.5132 11.5625C16.2215 11.8542 15.8674 12 15.4507 12H2.45068C2.03402 12 1.67985 11.8542 1.38818 11.5625C1.09652 11.2708 0.950684 10.9167 0.950684 10.5V1.5C0.950684 1.08333 1.09652 0.729167 1.38818 0.4375C1.67985 0.145833 2.03402 0 2.45068 0H15.4507ZM2.45068 1C2.30485 1 2.17985 1.05208 2.07568 1.15625C1.99235 1.23958 1.95068 1.35417 1.95068 1.5V2.78125C2.67985 3.40625 4.25277 4.67708 6.66943 6.59375C6.66943 6.59375 6.81527 6.71875 7.10693 6.96875C7.3986 7.19792 7.61735 7.36458 7.76318 7.46875C7.90902 7.57292 8.09652 7.6875 8.32568 7.8125C8.57568 7.9375 8.78402 8 8.95068 8C9.09652 8 9.25277 7.96875 9.41943 7.90625C9.5861 7.84375 9.75277 7.75 9.91943 7.625C10.1069 7.5 10.2632 7.38542 10.3882 7.28125C10.534 7.17708 10.7007 7.05208 10.8882 6.90625C11.0757 6.73958 11.1903 6.63542 11.2319 6.59375C13.6486 4.67708 15.2215 3.40625 15.9507 2.78125V1.5C15.9507 1.35417 15.8986 1.23958 15.7944 1.15625C15.7111 1.05208 15.5965 1 15.4507 1H2.45068ZM15.4507 11C15.5965 11 15.7111 10.9583 15.7944 10.875C15.8986 10.7708 15.9507 10.6458 15.9507 10.5V4.09375C15.2215 4.67708 13.8569 5.77083 11.8569 7.375C11.8153 7.39583 11.6694 7.51042 11.4194 7.71875C11.1903 7.92708 11.0028 8.08333 10.8569 8.1875C10.7111 8.29167 10.5236 8.41667 10.2944 8.5625C10.0653 8.70833 9.8361 8.82292 9.60693 8.90625C9.37777 8.96875 9.15902 9 8.95068 9C8.76318 9 8.56527 8.96875 8.35693 8.90625C8.16943 8.84375 7.99235 8.77083 7.82568 8.6875C7.67985 8.60417 7.50277 8.5 7.29443 8.375C7.10693 8.22917 6.95068 8.11458 6.82568 8.03125C6.70068 7.92708 6.55485 7.80208 6.38818 7.65625C6.22152 7.51042 6.10693 7.41667 6.04443 7.375C4.04443 5.77083 2.67985 4.67708 1.95068 4.09375V10.5C1.95068 10.6458 1.99235 10.7708 2.07568 10.875C2.17985 10.9583 2.30485 11 2.45068 11H15.4507Z" fill="#EB3300"/>
</svg>
