<svg width="28" height="29" viewBox="0 0 28 29" fill="none" xmlns="http://www.w3.org/2000/svg">
<mask id="mask0_1_1812" style="mask-type:luminance" maskUnits="userSpaceOnUse" x="0" y="1" width="28" height="28">
<path d="M27.5999 1.30841H0.399902V28.5084H27.5999V1.30841Z" fill="white"/>
</mask>
<g mask="url(#mask0_1_1812)">
<mask id="mask1_1_1812" style="mask-type:luminance" maskUnits="userSpaceOnUse" x="0" y="1" width="28" height="28">
<path d="M27.5999 1.30841H0.399902V28.5084H27.5999V1.30841Z" fill="white"/>
</mask>
<g mask="url(#mask1_1_1812)">
<mask id="mask2_1_1812" style="mask-type:luminance" maskUnits="userSpaceOnUse" x="0" y="1" width="28" height="28">
<path d="M27.5999 1.30841H0.399902V28.5084H27.5999V1.30841Z" fill="white"/>
</mask>
<g mask="url(#mask2_1_1812)">
<mask id="mask3_1_1812" style="mask-type:luminance" maskUnits="userSpaceOnUse" x="0" y="2" width="28" height="27">
<path d="M27.3508 2.0553H0.927979V28.4781H27.3508V2.0553Z" fill="white"/>
</mask>
<g mask="url(#mask3_1_1812)">
<path d="M17.8181 11.1636C18.032 11.1636 18.2052 10.9902 18.2052 10.7765V10.2684C18.2052 10.0546 18.032 9.88129 17.8181 9.88129C17.6044 9.88129 17.4312 10.0546 17.4312 10.2684V10.7765C17.4312 10.9902 17.6044 11.1636 17.8181 11.1636Z" fill="black"/>
<path d="M14.4776 11.1636C14.6915 11.1636 14.8647 10.9902 14.8647 10.7765V10.2684C14.8647 10.0546 14.6915 9.88129 14.4776 9.88129C14.2638 9.88129 14.0906 10.0546 14.0906 10.2684V10.7765C14.0906 10.9902 14.2639 11.1636 14.4776 11.1636Z" fill="black"/>
<path d="M16.1452 14.237C16.8939 14.237 17.503 13.6278 17.503 12.8791C17.503 12.6654 17.3298 12.492 17.116 12.492C16.9021 12.492 16.7289 12.6654 16.7289 12.8791C16.7289 13.201 16.467 13.4628 16.1452 13.4628C15.8234 13.4628 15.5615 13.201 15.5615 12.8791C15.5615 12.6654 15.3883 12.492 15.1744 12.492C14.9606 12.492 14.7874 12.6654 14.7874 12.8791C14.7874 13.6278 15.3965 14.237 16.1452 14.237Z" fill="black"/>
<path d="M24.9608 22.8117C25.1746 22.8117 25.3479 22.6385 25.3479 22.4246V21.2242C25.3479 20.1153 24.6397 19.1395 23.582 18.7947L18.7953 17.2867V15.7468C19.9123 14.9221 20.4617 13.5728 20.4144 12.2075C21.3024 12.2757 22.2701 11.7493 22.2701 10.7418V9.93375C22.2701 9.54671 22.1189 9.19431 21.873 8.93215C21.878 8.90727 21.8807 7.82801 21.8807 7.82801C21.8807 7.61418 21.7073 7.44092 21.4936 7.44092C21.2797 7.44092 21.1065 7.61418 21.1065 7.82801V8.46799H15.6879C15.0476 8.46799 14.5265 7.94703 14.5265 7.30673V3.99072C14.5265 3.35043 15.0476 2.82947 15.6879 2.82947H18.3154C19.8545 2.82947 21.1065 4.08155 21.1065 5.6206V6.14084C21.1065 6.35467 21.2797 6.52792 21.4936 6.52792C21.7073 6.52792 21.8807 6.35467 21.8807 6.14084V5.6206C21.8807 3.65467 20.2813 2.0553 18.3154 2.0553H15.6879C14.734 2.0553 13.9397 2.74906 13.7816 3.65844H13.1325C11.6385 3.65844 10.4229 4.87399 10.4229 6.36803C10.4229 6.36803 10.4251 8.89687 10.4283 8.91703C10.1739 9.18079 10.0168 9.53919 10.0168 9.93375V10.7418C10.0168 11.7337 10.98 12.2836 11.8727 12.2075C11.7875 13.5649 12.3917 14.9346 13.4917 15.7468V17.3022L10.0093 18.6037C9.67046 18.7309 9.3747 18.9494 9.1543 19.2357L6.91162 22.1469V20.8513C6.91162 20.5017 6.75606 20.1879 6.51075 19.9748V18.3717C6.51075 17.7163 5.9775 17.183 5.3221 17.183C4.66669 17.183 4.13349 17.7163 4.13349 18.3717V19.6901C3.31824 19.6901 2.93115 20.1475 2.93115 20.8513V24.1125C2.93115 24.6273 3.26797 25.0646 3.73263 25.2165V26.5449C3.73263 28.4066 6.13745 29.2157 7.29436 27.6358L9.34382 25.1597V28.091C9.34382 28.3049 9.51702 28.4781 9.73095 28.4781H24.9608C25.1746 28.4781 25.3479 28.3049 25.3479 28.091V24.1118C25.3479 23.8981 25.1746 23.7247 24.9608 23.7247C24.747 23.7247 24.5737 23.8981 24.5737 24.1118V27.704H22.1417V22.5681C22.1417 22.3542 21.9684 22.1809 21.7545 22.1809C21.5408 22.1809 21.3674 22.3542 21.3674 22.5681V22.8813H10.118V22.4819C10.118 22.2681 9.94479 22.0949 9.73095 22.0949C9.51711 22.0949 9.34382 22.2681 9.34382 22.4819V23.9456L6.68602 27.1569C6.05234 27.9217 4.50684 27.9448 4.50684 26.5449V25.2738H5.73663V25.6883C5.73663 25.9021 5.9099 26.0754 6.12372 26.0754C6.33754 26.0754 6.51081 25.9021 6.51081 25.6883V24.9891C6.75621 24.776 6.91187 24.4621 6.91187 24.1123V23.4152L9.76758 19.7081C9.8999 19.5362 10.0777 19.4049 10.2808 19.3287L13.816 18.0073L15.9107 19.5845C16.0621 19.6986 16.2617 19.6724 16.401 19.566L18.4814 17.9995L23.3457 19.5319C24.0801 19.7713 24.5737 20.4514 24.5737 21.2241V22.4246C24.5737 22.6385 24.747 22.8117 24.9608 22.8117ZM21.3674 23.6557V26.103H14.7223C14.5084 26.103 14.3352 26.2763 14.3352 26.4901C14.3352 26.704 14.5084 26.8772 14.7223 26.8772H21.3675V27.704H10.118V26.8772H13.0356C13.2494 26.8772 13.4226 26.704 13.4226 26.4901C13.4226 26.2763 13.2494 26.103 13.0356 26.103H10.118V23.6557H21.3674ZM4.90766 18.3717C4.90766 18.1432 5.09361 17.9573 5.3221 17.9573C5.55068 17.9573 5.73658 18.1433 5.73658 18.3717V19.6902H4.90766V18.3717ZM3.70538 20.8514C3.70538 20.6379 3.879 20.4643 4.09246 20.4643H5.75042C5.96388 20.4643 6.1375 20.6379 6.1375 20.8514V21.2933H4.92144C4.70761 21.2933 4.53435 21.4666 4.53435 21.6805C4.53435 21.8942 4.70761 22.0676 4.92144 22.0676H6.1375V22.8965H4.92144C4.70761 22.8965 4.53435 23.0698 4.53435 23.2837C4.53435 23.4975 4.70761 23.6707 4.92144 23.6707H6.1375V24.1127C6.1375 24.3708 5.98097 24.4822 5.75067 24.4995L4.09246 24.4997C3.879 24.4997 3.70538 24.3261 3.70538 24.1127V20.8514ZM21.4959 10.7418C21.4959 11.1232 21.1857 11.4333 20.8045 11.4333H20.4144V9.24231H20.8045C21.1858 9.24231 21.4959 9.55247 21.4959 9.93375V10.7418ZM11.1972 6.36803C11.1972 5.30081 12.0653 4.43261 13.1325 4.43261H13.7525V7.30673C13.7525 7.94703 13.2315 8.46809 12.5912 8.46809H12.2598H11.1972V6.36803ZM11.4825 11.4333C11.1012 11.4333 10.7911 11.1231 10.7911 10.7418V9.93375C10.7911 9.55247 11.1013 9.24231 11.4825 9.24231H11.8727V11.4333L11.4825 11.4333ZM12.6469 12.5479V9.24087C13.2565 9.22359 13.7966 8.92343 14.1396 8.4667C14.493 8.93719 15.0555 9.24215 15.6879 9.24215H19.6401V12.5479C19.6401 16.8014 12.6469 16.7965 12.6469 12.5479ZM18.0212 16.1934V17.3759L16.1436 18.7907L14.2659 17.3759V16.1935C15.1889 16.7473 17.0297 16.7129 18.0212 16.1934Z" fill="black"/>
<path d="M5.04922 13.1168C5.23172 13.2679 5.41421 13.2679 5.59666 13.1168L7.19981 11.5135C7.35098 11.3623 7.35098 11.1172 7.19976 10.9661C7.04864 10.8149 6.80353 10.8149 6.65237 10.9661L5.32297 12.2956L4.79509 11.7676C4.64387 11.6166 4.39882 11.6166 4.24765 11.7676C4.09649 11.9188 4.09649 12.1639 4.24765 12.3152L5.04922 13.1168Z" fill="#FF8713"/>
<path d="M4.09241 15.6537H7.35356C7.99385 15.6537 8.51486 15.1327 8.51486 14.4925V14.0505H9.73095C10.1397 14.0473 10.3203 13.7355 10.0061 13.3913L8.51486 11.8829V9.59151C8.51486 8.95127 7.99385 8.4303 7.35356 8.4303H4.09241C3.45212 8.4303 2.93115 8.95127 2.93115 9.59151V14.4925C2.93115 15.1327 3.45206 15.6537 4.09241 15.6537ZM3.70532 9.59151C3.70532 9.37807 3.87894 9.20447 4.09241 9.20447H7.35356C7.56703 9.20447 7.74064 9.37807 7.74064 9.59151V12.042C7.74064 12.1439 7.7808 12.2417 7.85249 12.3141L8.80382 13.2764H8.12773C7.9139 13.2764 7.74064 13.4497 7.74064 13.6634V14.4925C7.74064 14.7059 7.56703 14.8795 7.35356 14.8795H4.09241C3.87894 14.8795 3.70532 14.7059 3.70532 14.4925V9.59151Z" fill="black"/>
</g>
</g>
</g>
</g>
</svg>
