<svg width="16" height="16" viewBox="0 0 16 16" fill="none" xmlns="http://www.w3.org/2000/svg">
<path d="M15.3835 1.83179V13.5193C15.3835 14.4158 14.653 15.113 13.7898 15.113H5.62179C5.95382 14.5818 6.35225 13.7849 6.51827 13.1541C6.61788 12.7888 7.04952 11.2283 7.04952 11.2283C7.31515 11.7263 8.07882 12.158 8.9089 12.158C11.3659 12.158 13.1257 9.90015 13.1257 7.07788C13.1257 4.38843 10.9343 2.36304 8.11202 2.36304C4.59249 2.36304 2.73311 4.75366 2.73311 7.3103C2.73311 8.50562 3.36397 9.99976 4.39327 10.4646C4.52608 10.531 4.62569 10.4978 4.6589 10.365C4.6921 10.2322 4.82491 9.70093 4.89132 9.4353C4.89132 9.3689 4.89132 9.26929 4.82491 9.20288C4.49288 8.80444 4.22725 8.04077 4.22725 7.34351C4.22725 5.55054 5.58858 3.79077 7.8796 3.79077C9.90499 3.79077 11.2995 5.1853 11.2995 7.11108C11.2995 9.33569 10.2038 10.863 8.74288 10.863C7.946 10.863 7.34835 10.199 7.51436 9.3689C7.74679 8.40601 8.21163 7.37671 8.21163 6.67944C8.21163 4.91968 5.68819 5.1521 5.68819 7.50952C5.68819 8.20679 5.95382 8.70483 5.95382 8.70483C4.89132 13.1208 4.7253 13.1873 4.95772 15.113H5.02413H2.10225C1.20577 15.113 0.508505 14.4158 0.508505 13.5193V1.83179C0.508505 0.968506 1.20577 0.238037 2.10225 0.238037H13.7898C14.653 0.238037 15.3835 0.968506 15.3835 1.83179Z" fill="white"/>
</svg>
