<svg width="18" height="15" viewBox="0 0 18 15" fill="none" xmlns="http://www.w3.org/2000/svg">
<path d="M15.8902 4.22241C15.8902 4.38843 15.8902 4.52124 15.8902 4.68726C15.8902 9.30249 12.4039 14.5818 5.9957 14.5818C4.00352 14.5818 2.17735 14.0173 0.650002 13.0212C0.915627 13.0544 1.18125 13.0876 1.48008 13.0876C3.10703 13.0876 4.60117 12.5232 5.79649 11.5935C4.26914 11.5603 2.97422 10.5642 2.54258 9.16968C2.775 9.20288 2.97422 9.23608 3.20664 9.23608C3.50547 9.23608 3.8375 9.16968 4.10313 9.10327C2.50938 8.77124 1.31406 7.37671 1.31406 5.68335V5.65015C1.77891 5.91577 2.34336 6.04858 2.90781 6.08179C1.94492 5.45093 1.34727 4.38843 1.34727 3.19312C1.34727 2.52905 1.51328 1.9314 1.81211 1.43335C3.53867 3.52515 6.12852 4.91968 9.01719 5.08569C8.95078 4.82007 8.91758 4.55444 8.91758 4.28882C8.91758 2.36304 10.4781 0.80249 12.4039 0.80249C13.4 0.80249 14.2965 1.20093 14.9605 1.89819C15.7242 1.73218 16.4879 1.43335 17.152 1.03491C16.8863 1.86499 16.3551 2.52905 15.6246 2.96069C16.3219 2.89429 17.0191 2.69507 17.6168 2.42944C17.152 3.12671 16.5543 3.72437 15.8902 4.22241Z" fill="white"/>
</svg>
