<svg width="13" height="15" viewBox="0 0 13 15" fill="none" xmlns="http://www.w3.org/2000/svg">
<path d="M8.58496 8.01562C9.58757 8.01562 10.4443 8.38021 11.1553 9.10938C11.8844 9.82031 12.249 10.6771 12.249 11.6797V12.8281C12.249 13.1927 12.1214 13.5026 11.8662 13.7578C11.611 14.013 11.3011 14.1406 10.9365 14.1406H1.31152C0.94694 14.1406 0.637044 14.013 0.381836 13.7578C0.126628 13.5026 -0.000976562 13.1927 -0.000976562 12.8281V11.6797C-0.000976562 10.6771 0.354492 9.82031 1.06543 9.10938C1.7946 8.38021 2.66048 8.01562 3.66309 8.01562C3.90007 8.01562 4.24642 8.08854 4.70215 8.23438C5.17611 8.38021 5.65007 8.45312 6.12402 8.45312C6.59798 8.45312 7.07194 8.38021 7.5459 8.23438C8.01986 8.08854 8.36621 8.01562 8.58496 8.01562ZM11.374 12.8281V11.6797C11.374 10.9141 11.1006 10.2578 10.5537 9.71094C10.0068 9.16406 9.35059 8.89062 8.58496 8.89062C8.47559 8.89062 8.16569 8.96354 7.65527 9.10938C7.16309 9.25521 6.65267 9.32812 6.12402 9.32812C5.59538 9.32812 5.07585 9.25521 4.56543 9.10938C4.07324 8.96354 3.77246 8.89062 3.66309 8.89062C2.89746 8.89062 2.24121 9.16406 1.69434 9.71094C1.14746 10.2578 0.874023 10.9141 0.874023 11.6797V12.8281C0.874023 12.9557 0.910482 13.056 0.983398 13.1289C1.07454 13.2201 1.18392 13.2656 1.31152 13.2656H10.9365C11.0641 13.2656 11.1644 13.2201 11.2373 13.1289C11.3285 13.056 11.374 12.9557 11.374 12.8281ZM8.58496 6.12891C7.91048 6.80339 7.09017 7.14062 6.12402 7.14062C5.15788 7.14062 4.32845 6.80339 3.63574 6.12891C2.96126 5.4362 2.62402 4.60677 2.62402 3.64062C2.62402 2.67448 2.96126 1.85417 3.63574 1.17969C4.32845 0.486979 5.15788 0.140625 6.12402 0.140625C7.09017 0.140625 7.91048 0.486979 8.58496 1.17969C9.27767 1.85417 9.62402 2.67448 9.62402 3.64062C9.62402 4.60677 9.27767 5.4362 8.58496 6.12891ZM7.9834 1.78125C7.47298 1.27083 6.85319 1.01562 6.12402 1.01562C5.39486 1.01562 4.77507 1.27083 4.26465 1.78125C3.75423 2.29167 3.49902 2.91146 3.49902 3.64062C3.49902 4.36979 3.75423 4.98958 4.26465 5.5C4.77507 6.01042 5.39486 6.26562 6.12402 6.26562C6.85319 6.26562 7.47298 6.01042 7.9834 5.5C8.49382 4.98958 8.74902 4.36979 8.74902 3.64062C8.74902 2.91146 8.49382 2.29167 7.9834 1.78125Z" fill="#FF8713"/>
</svg>
