<svg width="14" height="16" viewBox="0 0 14 16" fill="none" xmlns="http://www.w3.org/2000/svg">
<path d="M9.8125 9C10.9583 9 11.9375 9.41667 12.75 10.25C13.5833 11.0625 14 12.0417 14 13.1875V14.5C14 14.9167 13.8542 15.2708 13.5625 15.5625C13.2708 15.8542 12.9167 16 12.5 16H1.5C1.08333 16 0.729167 15.8542 0.4375 15.5625C0.145833 15.2708 0 14.9167 0 14.5V13.1875C0 12.0417 0.40625 11.0625 1.21875 10.25C2.05208 9.41667 3.04167 9 4.1875 9C4.45833 9 4.85417 9.08333 5.375 9.25C5.91667 9.41667 6.45833 9.5 7 9.5C7.54167 9.5 8.08333 9.41667 8.625 9.25C9.16667 9.08333 9.5625 9 9.8125 9ZM13 14.5V13.1875C13 12.3125 12.6875 11.5625 12.0625 10.9375C11.4375 10.3125 10.6875 10 9.8125 10C9.6875 10 9.33333 10.0833 8.75 10.25C8.1875 10.4167 7.60417 10.5 7 10.5C6.39583 10.5 5.80208 10.4167 5.21875 10.25C4.65625 10.0833 4.3125 10 4.1875 10C3.3125 10 2.5625 10.3125 1.9375 10.9375C1.3125 11.5625 1 12.3125 1 13.1875V14.5C1 14.6458 1.04167 14.7604 1.125 14.8438C1.22917 14.9479 1.35417 15 1.5 15H12.5C12.6458 15 12.7604 14.9479 12.8438 14.8438C12.9479 14.7604 13 14.6458 13 14.5ZM9.8125 6.84375C9.04167 7.61458 8.10417 8 7 8C5.89583 8 4.94792 7.61458 4.15625 6.84375C3.38542 6.05208 3 5.10417 3 4C3 2.89583 3.38542 1.95833 4.15625 1.1875C4.94792 0.395833 5.89583 0 7 0C8.10417 0 9.04167 0.395833 9.8125 1.1875C10.6042 1.95833 11 2.89583 11 4C11 5.10417 10.6042 6.05208 9.8125 6.84375ZM9.125 1.875C8.54167 1.29167 7.83333 1 7 1C6.16667 1 5.45833 1.29167 4.875 1.875C4.29167 2.45833 4 3.16667 4 4C4 4.83333 4.29167 5.54167 4.875 6.125C5.45833 6.70833 6.16667 7 7 7C7.83333 7 8.54167 6.70833 9.125 6.125C9.70833 5.54167 10 4.83333 10 4C10 3.16667 9.70833 2.45833 9.125 1.875Z" fill="#EB3300"/>
</svg>
